<svg xmlns="http://www.w3.org/2000/svg" version="1.1" xmlns:xlink="http://www.w3.org/1999/xlink" xmlns:svgjs="http://svgjs.dev/svgjs" width="128" height="128" viewBox="0 0 128 128"><g transform="matrix(0.8046875,0,0,0.8046875,12.333870967741937,12.333870967741937)"><svg viewBox="0 0 155 155" data-background-color="#00ffef" preserveAspectRatio="xMidYMid meet" height="128" width="128" xmlns="http://www.w3.org/2000/svg" xmlns:xlink="http://www.w3.org/1999/xlink"><g id="tight-bounds" transform="matrix(1,0,0,1,0.25,0.25)"><svg viewBox="0 0 154.5 154.5" height="154.5" width="154.5"><g><svg></svg></g><g><svg viewBox="0 0 154.5 154.5" height="154.5" width="154.5"><mask id="12d0919a-eb51-4b53-8aa2-7f230693a2da"><rect width="250" height="250" fill="white"></rect><rect width="84.02328" height="50.653560780557704" fill="black" y="51.923219609721144" x="35.23836" id="transform-me"></rect></mask><g transform="matrix(1,0,0,1,39.0576,60.04608329148155)"><svg viewBox="0 0 76.3848 34.4078334170369" height="34.4078334170369" width="76.3848"><g><svg viewBox="0 0 76.3848 34.4078334170369" height="34.4078334170369" width="76.3848"><g><svg viewBox="0 0 76.3848 34.4078334170369" height="34.4078334170369" width="76.3848"><g id="textblocktransform"><svg viewBox="0 0 76.3848 34.4078334170369" height="34.4078334170369" width="76.3848" id="textblock"><g><svg viewBox="0 0 76.3848 34.4078334170369" height="34.4078334170369" width="76.3848"><g transform="matrix(1,0,0,1,0,0)"><svg width="76.3848" viewBox="2.364375 -37.1 82.360625 37.1" height="34.4078334170369" data-palette-color="#787c81"><path d="M49.25-37.1L49.25-37.1Q49.7-37.1 49.88-36.85 50.05-36.6 49.95-36.2L49.95-36.2 39.65-0.75Q39.4 0 38.55 0L38.55 0 35.5 0Q34.55 0 34.35-0.7L34.35-0.7 26.35-29.05Q26.3-29.3 26.2-29.3 26.1-29.3 26-29L26-29 17.9-0.75Q17.65 0 16.8 0L16.8 0 13.7 0Q12.75 0 12.55-0.7L12.55-0.7 2.4-36.2Q2.3-36.6 2.48-36.85 2.65-37.1 3.1-37.1L3.1-37.1 6.3-37.1Q6.7-37.1 6.9-36.98 7.1-36.85 7.15-36.5L7.15-36.5 15.3-7.4Q15.45-6.85 15.63-6.88 15.8-6.9 15.9-7.35L15.9-7.35 24.2-36.55Q24.3-36.75 24.48-36.93 24.65-37.1 25.1-37.1L25.1-37.1 27.95-37.1Q28.4-37.1 28.58-36.98 28.75-36.85 28.85-36.5L28.85-36.5 37.05-7.25Q37.2-6.8 37.35-6.83 37.5-6.85 37.65-7.25L37.65-7.25 45.9-36.55Q45.95-36.85 46.18-36.98 46.4-37.1 46.75-37.1L46.75-37.1 49.25-37.1ZM84.15-37.1L84.15-37.1Q84.5-37.1 84.65-36.88 84.8-36.65 84.65-36.35L84.65-36.35 72-0.75Q71.75 0 70.9 0L70.9 0 67.5 0Q66.5 0 66.3-0.7L66.3-0.7 53.9-36.35Q53.8-36.65 53.95-36.88 54.1-37.1 54.45-37.1L54.45-37.1 57.9-37.1Q58.55-37.1 58.75-36.5L58.75-36.5 69.15-6.2Q69.55-5.25 69.9-6.25L69.9-6.25 80.45-36.55Q80.6-37.1 81.2-37.1L81.2-37.1 84.15-37.1Z" opacity="1" transform="matrix(1,0,0,1,0,0)" fill="#787c81" class="wordmark-text-0" data-fill-palette-color="primary" id="text-0"></path></svg></g></svg></g></svg></g></svg></g><g></g></svg></g></svg></g><g mask="url(#12d0919a-eb51-4b53-8aa2-7f230693a2da)"><g transform="matrix(3.1749666888740844, 0, 0, 3.1749666888740844, 1, 5.400503830779456)"><svg xmlns="http://www.w3.org/2000/svg" xmlns:xlink="http://www.w3.org/1999/xlink" version="1.1" x="0" y="0" viewBox="0.984 2.37 48.032 45.26000000000001" enable-background="new 0 0 50 50" xml:space="preserve" height="45.26000000000001" width="48.032" class="icon-none" data-fill-palette-color="accent" id="none"><g fill="#1761d8" data-fill-palette-color="accent"><path fill="#1761d8" d="M3.459 31.03c3.357 0 22.031 0 28.753 0 6.52-6.523-0.793-10.971-3.457-10.971l-1.584 3.063c0 0 0.299-10.178-9.784-10.178-5.634 0-8.89 6.422-8.89 6.422l4.051 3.361c-4.251-4.25-11.564-3.063-11.564 3.754C0.985 26.481 1.187 31.03 3.459 31.03z" data-fill-palette-color="accent"></path><path fill="#1761d8" d="M45.949 36.366c-0.494 0.887-1.682 1.184-2.57 0.689l-5.139-2.965c-0.891-0.592-1.186-1.68-0.695-2.568l0 0c0.498-0.988 1.684-1.283 2.574-0.693l5.137 2.965C46.242 34.29 46.541 35.476 45.949 36.366L45.949 36.366z" data-fill-palette-color="accent"></path><path fill="#1761d8" d="M45.949 36.366c-0.494 0.887-1.682 1.184-2.57 0.689l-5.139-2.965c-0.891-0.592-1.186-1.68-0.695-2.568l0 0c0.498-0.988 1.684-1.283 2.574-0.693l5.137 2.965C46.242 34.29 46.541 35.476 45.949 36.366L45.949 36.366z" data-fill-palette-color="accent"></path><path fill="#1761d8" d="M37.746 44.663c-0.986 0.496-2.074 0.199-2.57-0.689l-3.064-5.238c-0.492-0.889-0.197-1.977 0.695-2.568l0 0c0.887-0.492 2.072-0.199 2.57 0.691l3.061 5.236C38.932 42.983 38.635 44.073 37.746 44.663L37.746 44.663z" data-fill-palette-color="accent"></path><path fill="#1761d8" d="M37.746 44.663c-0.986 0.496-2.074 0.199-2.57-0.689l-3.064-5.238c-0.492-0.889-0.197-1.977 0.695-2.568l0 0c0.887-0.492 2.072-0.199 2.57 0.691l3.061 5.236C38.932 42.983 38.635 44.073 37.746 44.663L37.746 44.663z" data-fill-palette-color="accent"></path><path fill="#1761d8" d="M26.381 47.63c-1.084 0-1.875-0.793-1.875-1.877v-5.93c0-1.088 0.791-1.877 1.875-1.877l0 0c1.09 0 1.879 0.789 1.879 1.877v5.93C28.26 46.837 27.471 47.63 26.381 47.63L26.381 47.63z" data-fill-palette-color="accent"></path><path fill="#1761d8" d="M26.381 47.63c-1.084 0-1.875-0.793-1.875-1.877v-5.93c0-1.088 0.791-1.877 1.875-1.877l0 0c1.09 0 1.879 0.789 1.879 1.877v5.93C28.26 46.837 27.471 47.63 26.381 47.63L26.381 47.63z" data-fill-palette-color="accent"></path><path fill="#1761d8" d="M26.381 2.37c1.09 0 1.879 0.889 1.879 1.879v6.027c0 0.986-0.789 1.877-1.879 1.877l0 0c-1.084 0-1.875-0.891-1.875-1.877V4.249C24.505 3.259 25.296 2.37 26.381 2.37L26.381 2.37z" data-fill-palette-color="accent"></path><path fill="#1761d8" d="M26.381 2.37c1.09 0 1.879 0.889 1.879 1.879v6.027c0 0.986-0.789 1.877-1.879 1.877l0 0c-1.084 0-1.875-0.891-1.875-1.877V4.249C24.505 3.259 25.296 2.37 26.381 2.37L26.381 2.37z" data-fill-palette-color="accent"></path><path fill="#1761d8" d="M37.746 5.435c0.889 0.494 1.186 1.682 0.691 2.572l-3.061 5.137c-0.498 0.889-1.684 1.186-2.57 0.691l0 0c-0.893-0.494-1.188-1.682-0.695-2.572l3.064-5.137C35.672 5.237 36.76 4.94 37.746 5.435L37.746 5.435z" data-fill-palette-color="accent"></path><path fill="#1761d8" d="M37.746 5.435c0.889 0.494 1.186 1.682 0.691 2.572l-3.061 5.137c-0.498 0.889-1.684 1.186-2.57 0.691l0 0c-0.893-0.494-1.188-1.682-0.695-2.572l3.064-5.137C35.672 5.237 36.76 4.94 37.746 5.435L37.746 5.435z" data-fill-palette-color="accent"></path><path fill="#1761d8" d="M45.949 13.735c0.592 0.891 0.293 1.977-0.693 2.568l-5.137 2.965c-0.891 0.494-2.076 0.197-2.574-0.691l0 0c-0.49-0.889-0.195-2.076 0.695-2.568l5.139-2.967C44.268 12.448 45.455 12.845 45.949 13.735L45.949 13.735z" data-fill-palette-color="accent"></path><path fill="#1761d8" d="M45.949 13.735c0.592 0.891 0.293 1.977-0.693 2.568l-5.137 2.965c-0.891 0.494-2.076 0.197-2.574-0.691l0 0c-0.49-0.889-0.195-2.076 0.695-2.568l5.139-2.967C44.268 12.448 45.455 12.845 45.949 13.735L45.949 13.735z" data-fill-palette-color="accent"></path><path fill="#1761d8" d="M49.016 24.999c0 1.088-0.795 1.879-1.879 1.879h-5.932c-1.086 0-1.875-0.791-1.875-1.879l0 0c0-0.986 0.789-1.877 1.875-1.877h5.932C48.221 23.122 49.016 24.013 49.016 24.999L49.016 24.999z" data-fill-palette-color="accent"></path><path fill="#1761d8" d="M49.016 24.999c0 1.088-0.795 1.879-1.879 1.879h-5.932c-1.086 0-1.875-0.791-1.875-1.879l0 0c0-0.986 0.789-1.877 1.875-1.877h5.932C48.221 23.122 49.016 24.013 49.016 24.999L49.016 24.999z" data-fill-palette-color="accent"></path><path fill="#1761d8" d="M45.949 36.366c-0.494 0.887-1.682 1.184-2.57 0.689l-5.139-2.965c-0.891-0.592-1.186-1.68-0.695-2.568l0 0c0.498-0.988 1.684-1.283 2.574-0.693l5.137 2.965C46.242 34.29 46.541 35.476 45.949 36.366L45.949 36.366z" data-fill-palette-color="accent"></path><path fill="#1761d8" d="M37.746 44.663c-0.986 0.496-2.074 0.199-2.57-0.689l-3.064-5.238c-0.492-0.889-0.197-1.977 0.695-2.568l0 0c0.887-0.492 2.072-0.199 2.57 0.691l3.061 5.236C38.932 42.983 38.635 44.073 37.746 44.663L37.746 44.663z" data-fill-palette-color="accent"></path><path fill="#1761d8" d="M26.381 47.63c-1.084 0-1.875-0.793-1.875-1.877v-5.93c0-1.088 0.791-1.877 1.875-1.877l0 0c1.09 0 1.879 0.789 1.879 1.877v5.93C28.26 46.837 27.471 47.63 26.381 47.63L26.381 47.63z" data-fill-palette-color="accent"></path><path fill="#1761d8" d="M26.381 2.37c1.09 0 1.879 0.889 1.879 1.879v6.027c0 0.986-0.789 1.877-1.879 1.877l0 0c-1.084 0-1.875-0.891-1.875-1.877V4.249C24.505 3.259 25.296 2.37 26.381 2.37L26.381 2.37z" data-fill-palette-color="accent"></path><path fill="#1761d8" d="M37.746 5.435c0.889 0.494 1.186 1.682 0.691 2.572l-3.061 5.137c-0.498 0.889-1.684 1.186-2.57 0.691l0 0c-0.893-0.494-1.188-1.682-0.695-2.572l3.064-5.137C35.672 5.237 36.76 4.94 37.746 5.435L37.746 5.435z" data-fill-palette-color="accent"></path><path fill="#1761d8" d="M45.949 13.735c0.592 0.891 0.293 1.977-0.693 2.568l-5.137 2.965c-0.891 0.494-2.076 0.197-2.574-0.691l0 0c-0.49-0.889-0.195-2.076 0.695-2.568l5.139-2.967C44.268 12.448 45.455 12.845 45.949 13.735L45.949 13.735z" data-fill-palette-color="accent"></path><path fill="#1761d8" d="M49.016 24.999c0 1.088-0.795 1.879-1.879 1.879h-5.932c-1.086 0-1.875-0.791-1.875-1.879l0 0c0-0.986 0.789-1.877 1.875-1.877h5.932C48.221 23.122 49.016 24.013 49.016 24.999L49.016 24.999z" data-fill-palette-color="accent"></path></g></svg></g></g></svg></g><defs></defs></svg><rect width="154.5" height="154.5" fill="none" stroke="none" visibility="hidden"></rect></g></svg></g></svg>